<svg width="136" height="136" viewBox="0 0 136 136" fill="none" xmlns="http://www.w3.org/2000/svg">
<path d="M128.073 11.6847C127.817 10.7141 127.308 9.8288 126.599 9.11909C125.889 8.40937 125.004 7.9007 124.033 7.64502C112.409 4.62575 100.168 4.95094 88.7199 8.58315C77.2722 12.2153 67.083 19.0069 59.3256 28.1757L53.0077 35.6774L38.2472 32.116C34.6587 30.865 30.7387 30.9546 27.2112 32.3685C23.6837 33.7823 20.7869 36.4247 19.0558 39.8078L6.58802 61.9073C6.15116 62.6813 5.90255 63.5473 5.86227 64.4353C5.82199 65.3232 5.99117 66.2081 6.35613 67.0186C6.7211 67.8291 7.27162 68.5423 7.9632 69.1006C8.65478 69.659 9.46802 70.0468 10.3372 70.2327L27.7494 73.9653C26.2745 78.4553 25.2212 83.073 24.6035 87.7585C24.4915 88.6193 24.5787 89.4943 24.8584 90.3161C25.138 91.1379 25.6027 91.8844 26.2166 92.4982L43.7838 110.065C44.3098 110.592 44.9343 111.009 45.6217 111.294C46.3092 111.579 47.046 111.726 47.7901 111.726C47.9534 111.726 48.1166 111.717 48.2827 111.704C53.0729 111.273 57.805 110.342 62.4016 108.927L66.0491 125.945C66.2355 126.814 66.6235 127.627 67.182 128.318C67.7405 129.009 68.4536 129.56 69.264 129.925C70.0743 130.29 70.9591 130.459 71.8469 130.419C72.7347 130.379 73.6006 130.131 74.3748 129.694L96.5046 117.213C99.6193 115.32 102.052 112.487 103.453 109.122C104.853 105.758 105.149 102.035 104.296 98.4915L100.507 82.8572L107.517 76.4113C116.72 68.6756 123.538 58.4859 127.177 47.0275C130.816 35.569 131.126 23.3128 128.073 11.6847ZM20.2428 60.7645L29.061 45.1259C29.6087 44.0642 30.5419 43.2523 31.6691 42.8566C32.7963 42.461 34.0322 42.5116 35.1233 42.9981L44.8553 45.3566L41.172 49.73C37.6799 53.9153 34.6597 58.4726 32.1658 63.3194L20.2428 60.7645ZM90.9073 107.357L75.5177 116.036L73.0839 104.677C78.0174 102.216 82.6137 99.1312 86.7597 95.4975L90.9731 91.6234L93.2592 101.056C93.5557 102.221 93.4894 103.449 93.0691 104.575C92.6488 105.701 91.8945 106.671 90.9073 107.357ZM100.055 67.8867L79.1756 87.0754C70.9111 94.2226 60.7171 98.7656 49.8766 100.132L36.2522 86.5081C38.0821 75.6394 42.7786 65.4556 49.8572 57.0075L59.3678 45.7156C59.5263 45.5498 59.6742 45.3743 59.8105 45.1899L67.9419 35.5357C73.954 28.4348 81.743 23.0566 90.5134 19.9504C99.2838 16.8441 108.722 16.1211 117.863 17.855C119.639 27.025 118.923 36.5033 115.791 45.3028C112.659 54.1023 107.225 61.9011 100.055 67.8867ZM94.8245 32.9588C93.1433 32.9588 91.5 33.4573 90.1021 34.3913C88.7043 35.3253 87.6149 36.6528 86.9715 38.2059C86.3282 39.7591 86.1598 41.4682 86.4878 43.117C86.8158 44.7659 87.6253 46.2804 88.8141 47.4692C90.0028 48.6579 91.5174 49.4675 93.1662 49.7954C94.8151 50.1234 96.5241 49.9551 98.0773 49.3117C99.6305 48.6684 100.958 47.5789 101.892 46.1811C102.826 44.7833 103.324 43.1399 103.324 41.4588C103.325 40.3425 103.105 39.2371 102.678 38.2058C102.25 37.1745 101.624 36.2374 100.835 35.4481C100.046 34.6587 99.1086 34.0326 98.0772 33.6055C97.0459 33.1784 95.9405 32.9585 94.8243 32.9586L94.8245 32.9588Z" fill="url(#paint0_linear_4827_39998)"/>
<defs>
<linearGradient id="paint0_linear_4827_39998" x1="5.85645" y1="5.59729" x2="153.025" y2="44.9977" gradientUnits="userSpaceOnUse">
<stop stop-color="#57A7FF"/>
<stop offset="1" stop-color="#04FF00"/>
</linearGradient>
</defs>
</svg>
