<svg width="19" height="20" viewBox="0 0 19 20" fill="none" xmlns="http://www.w3.org/2000/svg">
<path d="M15.5 0H3.5C2.70435 0 1.94129 0.316071 1.37868 0.87868C0.816071 1.44129 0.5 2.20435 0.5 3V14C0.5 14.7956 0.816071 15.5587 1.37868 16.1213C1.94129 16.6839 2.70435 17 3.5 17H6.09L8.79 19.71C8.88344 19.8027 8.99426 19.876 9.11609 19.9258C9.23793 19.9755 9.36839 20.0008 9.5 20C9.73834 20 9.96886 19.9149 10.15 19.76L13.37 17H15.5C16.2956 17 17.0587 16.6839 17.6213 16.1213C18.1839 15.5587 18.5 14.7956 18.5 14V3C18.5 2.20435 18.1839 1.44129 17.6213 0.87868C17.0587 0.316071 16.2956 0 15.5 0ZM16.5 14C16.5 14.2652 16.3946 14.5196 16.2071 14.7071C16.0196 14.8946 15.7652 15 15.5 15H13C12.7617 15 12.5311 15.0851 12.35 15.24L9.55 17.64L7.21 15.29C7.11656 15.1973 7.00574 15.124 6.88391 15.0742C6.76207 15.0245 6.63161 14.9992 6.5 15H3.5C3.23478 15 2.98043 14.8946 2.79289 14.7071C2.60536 14.5196 2.5 14.2652 2.5 14V3C2.5 2.73478 2.60536 2.48043 2.79289 2.29289C2.98043 2.10536 3.23478 2 3.5 2H15.5C15.7652 2 16.0196 2.10536 16.2071 2.29289C16.3946 2.48043 16.5 2.73478 16.5 3V14Z" fill="#7C787C"/>
</svg>
